<mxfile host="app.diagrams.net" modified="2024-01-09T14:51:19.875Z" agent="Mozilla/5.0 (Windows NT 10.0; Win64; x64) AppleWebKit/537.36 (KHTML, like Gecko) Chrome/120.0.0.0 Safari/537.36" etag="X87NOAHEzrOTWN5XBkcR" version="22.1.17" type="github">
  <diagram name="Page-1" id="-eNS6mJXbpBTqLXFlyJE">
    <mxGraphModel dx="1615" dy="928" grid="1" gridSize="10" guides="1" tooltips="1" connect="1" arrows="1" fold="1" page="1" pageScale="1" pageWidth="850" pageHeight="1100" math="0" shadow="0">
      <root>
        <mxCell id="0" />
        <mxCell id="1" parent="0" />
        <mxCell id="YDmUpp5yi8TmxnJeI9YA-5" style="edgeStyle=orthogonalEdgeStyle;rounded=1;orthogonalLoop=1;jettySize=auto;html=1;curved=0;" edge="1" parent="1" source="YDmUpp5yi8TmxnJeI9YA-1" target="YDmUpp5yi8TmxnJeI9YA-4">
          <mxGeometry relative="1" as="geometry">
            <Array as="points">
              <mxPoint x="160" y="20" />
              <mxPoint x="160" y="100" />
            </Array>
          </mxGeometry>
        </mxCell>
        <mxCell id="YDmUpp5yi8TmxnJeI9YA-1" value="epw" style="rounded=1;whiteSpace=wrap;html=1;perimeterSpacing=12;fontStyle=2" vertex="1" parent="1">
          <mxGeometry width="120" height="40" as="geometry" />
        </mxCell>
        <mxCell id="YDmUpp5yi8TmxnJeI9YA-6" style="edgeStyle=orthogonalEdgeStyle;rounded=1;orthogonalLoop=1;jettySize=auto;html=1;curved=0;" edge="1" parent="1" source="YDmUpp5yi8TmxnJeI9YA-2" target="YDmUpp5yi8TmxnJeI9YA-4">
          <mxGeometry relative="1" as="geometry" />
        </mxCell>
        <mxCell id="YDmUpp5yi8TmxnJeI9YA-2" value="gis" style="rounded=1;whiteSpace=wrap;html=1;perimeterSpacing=12;fontStyle=2" vertex="1" parent="1">
          <mxGeometry y="80" width="120" height="40" as="geometry" />
        </mxCell>
        <mxCell id="YDmUpp5yi8TmxnJeI9YA-7" style="edgeStyle=orthogonalEdgeStyle;rounded=1;orthogonalLoop=1;jettySize=auto;html=1;curved=0;" edge="1" parent="1" source="YDmUpp5yi8TmxnJeI9YA-3" target="YDmUpp5yi8TmxnJeI9YA-4">
          <mxGeometry relative="1" as="geometry">
            <Array as="points">
              <mxPoint x="160" y="180" />
              <mxPoint x="160" y="100" />
            </Array>
          </mxGeometry>
        </mxCell>
        <mxCell id="YDmUpp5yi8TmxnJeI9YA-28" style="edgeStyle=orthogonalEdgeStyle;shape=connector;curved=0;rounded=1;orthogonalLoop=1;jettySize=auto;html=1;labelBackgroundColor=default;strokeColor=default;align=center;verticalAlign=middle;fontFamily=Helvetica;fontSize=12;fontColor=default;endArrow=classic;" edge="1" parent="1" source="YDmUpp5yi8TmxnJeI9YA-3" target="YDmUpp5yi8TmxnJeI9YA-19">
          <mxGeometry relative="1" as="geometry">
            <Array as="points">
              <mxPoint x="160" y="180" />
              <mxPoint x="160" y="340" />
            </Array>
          </mxGeometry>
        </mxCell>
        <mxCell id="YDmUpp5yi8TmxnJeI9YA-3" value="base templates" style="rounded=1;whiteSpace=wrap;html=1;perimeterSpacing=12;fontStyle=2" vertex="1" parent="1">
          <mxGeometry y="160" width="120" height="40" as="geometry" />
        </mxCell>
        <mxCell id="YDmUpp5yi8TmxnJeI9YA-12" style="edgeStyle=orthogonalEdgeStyle;shape=connector;curved=0;rounded=1;orthogonalLoop=1;jettySize=auto;html=1;labelBackgroundColor=default;strokeColor=default;align=center;verticalAlign=middle;fontFamily=Helvetica;fontSize=12;fontColor=default;endArrow=classic;" edge="1" parent="1" source="YDmUpp5yi8TmxnJeI9YA-4" target="YDmUpp5yi8TmxnJeI9YA-9">
          <mxGeometry relative="1" as="geometry" />
        </mxCell>
        <mxCell id="YDmUpp5yi8TmxnJeI9YA-14" style="edgeStyle=orthogonalEdgeStyle;shape=connector;curved=0;rounded=1;orthogonalLoop=1;jettySize=auto;html=1;labelBackgroundColor=default;strokeColor=default;align=center;verticalAlign=middle;fontFamily=Helvetica;fontSize=12;fontColor=default;endArrow=classic;" edge="1" parent="1" source="YDmUpp5yi8TmxnJeI9YA-4" target="YDmUpp5yi8TmxnJeI9YA-11">
          <mxGeometry relative="1" as="geometry">
            <Array as="points">
              <mxPoint x="260" y="160" />
              <mxPoint x="460" y="160" />
            </Array>
          </mxGeometry>
        </mxCell>
        <mxCell id="YDmUpp5yi8TmxnJeI9YA-4" value="baseline model" style="rounded=1;whiteSpace=wrap;html=1;perimeterSpacing=12;fontStyle=2" vertex="1" parent="1">
          <mxGeometry x="200" y="80" width="120" height="40" as="geometry" />
        </mxCell>
        <mxCell id="YDmUpp5yi8TmxnJeI9YA-17" style="edgeStyle=orthogonalEdgeStyle;shape=connector;curved=0;rounded=1;orthogonalLoop=1;jettySize=auto;html=1;labelBackgroundColor=default;strokeColor=default;align=center;verticalAlign=middle;fontFamily=Helvetica;fontSize=12;fontColor=default;endArrow=classic;" edge="1" parent="1" source="YDmUpp5yi8TmxnJeI9YA-8" target="YDmUpp5yi8TmxnJeI9YA-11">
          <mxGeometry relative="1" as="geometry">
            <Array as="points">
              <mxPoint x="660" y="160" />
              <mxPoint x="460" y="160" />
            </Array>
          </mxGeometry>
        </mxCell>
        <mxCell id="YDmUpp5yi8TmxnJeI9YA-8" value="deep retrofit" style="rounded=1;whiteSpace=wrap;html=1;perimeterSpacing=12;fontStyle=2" vertex="1" parent="1">
          <mxGeometry x="600" y="80" width="120" height="40" as="geometry" />
        </mxCell>
        <mxCell id="YDmUpp5yi8TmxnJeI9YA-13" style="edgeStyle=orthogonalEdgeStyle;shape=connector;curved=0;rounded=1;orthogonalLoop=1;jettySize=auto;html=1;labelBackgroundColor=default;strokeColor=default;align=center;verticalAlign=middle;fontFamily=Helvetica;fontSize=12;fontColor=default;endArrow=classic;" edge="1" parent="1" source="YDmUpp5yi8TmxnJeI9YA-9" target="YDmUpp5yi8TmxnJeI9YA-8">
          <mxGeometry relative="1" as="geometry" />
        </mxCell>
        <mxCell id="YDmUpp5yi8TmxnJeI9YA-15" style="edgeStyle=orthogonalEdgeStyle;shape=connector;curved=0;rounded=1;orthogonalLoop=1;jettySize=auto;html=1;labelBackgroundColor=default;strokeColor=default;align=center;verticalAlign=middle;fontFamily=Helvetica;fontSize=12;fontColor=default;endArrow=classic;" edge="1" parent="1" source="YDmUpp5yi8TmxnJeI9YA-9" target="YDmUpp5yi8TmxnJeI9YA-11">
          <mxGeometry relative="1" as="geometry" />
        </mxCell>
        <mxCell id="YDmUpp5yi8TmxnJeI9YA-9" value="shallow retrofit" style="rounded=1;whiteSpace=wrap;html=1;perimeterSpacing=12;fontStyle=2" vertex="1" parent="1">
          <mxGeometry x="400" y="80" width="120" height="40" as="geometry" />
        </mxCell>
        <mxCell id="YDmUpp5yi8TmxnJeI9YA-20" style="edgeStyle=orthogonalEdgeStyle;shape=connector;curved=0;rounded=1;orthogonalLoop=1;jettySize=auto;html=1;labelBackgroundColor=default;strokeColor=default;align=center;verticalAlign=middle;fontFamily=Helvetica;fontSize=12;fontColor=default;endArrow=classic;" edge="1" parent="1" source="YDmUpp5yi8TmxnJeI9YA-11" target="YDmUpp5yi8TmxnJeI9YA-19">
          <mxGeometry relative="1" as="geometry" />
        </mxCell>
        <mxCell id="YDmUpp5yi8TmxnJeI9YA-22" style="edgeStyle=orthogonalEdgeStyle;shape=connector;curved=0;rounded=1;orthogonalLoop=1;jettySize=auto;html=1;labelBackgroundColor=default;strokeColor=default;align=center;verticalAlign=middle;fontFamily=Helvetica;fontSize=12;fontColor=default;endArrow=classic;" edge="1" parent="1" source="YDmUpp5yi8TmxnJeI9YA-11" target="YDmUpp5yi8TmxnJeI9YA-21">
          <mxGeometry relative="1" as="geometry" />
        </mxCell>
        <mxCell id="YDmUpp5yi8TmxnJeI9YA-11" value="hourly demands" style="rounded=1;whiteSpace=wrap;html=1;perimeterSpacing=12;fontStyle=2" vertex="1" parent="1">
          <mxGeometry x="400" y="200" width="120" height="40" as="geometry" />
        </mxCell>
        <mxCell id="YDmUpp5yi8TmxnJeI9YA-24" style="edgeStyle=orthogonalEdgeStyle;shape=connector;curved=0;rounded=1;orthogonalLoop=1;jettySize=auto;html=1;labelBackgroundColor=default;strokeColor=default;align=center;verticalAlign=middle;fontFamily=Helvetica;fontSize=12;fontColor=default;endArrow=classic;" edge="1" parent="1" source="YDmUpp5yi8TmxnJeI9YA-19" target="YDmUpp5yi8TmxnJeI9YA-21">
          <mxGeometry relative="1" as="geometry" />
        </mxCell>
        <mxCell id="YDmUpp5yi8TmxnJeI9YA-19" value="advanced controls analysis" style="rounded=1;whiteSpace=wrap;html=1;perimeterSpacing=12;fontStyle=2" vertex="1" parent="1">
          <mxGeometry x="280" y="320" width="120" height="40" as="geometry" />
        </mxCell>
        <mxCell id="YDmUpp5yi8TmxnJeI9YA-26" style="edgeStyle=orthogonalEdgeStyle;shape=connector;curved=0;rounded=1;orthogonalLoop=1;jettySize=auto;html=1;labelBackgroundColor=default;strokeColor=default;align=center;verticalAlign=middle;fontFamily=Helvetica;fontSize=12;fontColor=default;endArrow=classic;" edge="1" parent="1" source="YDmUpp5yi8TmxnJeI9YA-21" target="YDmUpp5yi8TmxnJeI9YA-23">
          <mxGeometry relative="1" as="geometry" />
        </mxCell>
        <mxCell id="YDmUpp5yi8TmxnJeI9YA-21" value="district system analysis" style="rounded=1;whiteSpace=wrap;html=1;perimeterSpacing=12;fontStyle=2" vertex="1" parent="1">
          <mxGeometry x="520" y="320" width="120" height="40" as="geometry" />
        </mxCell>
        <mxCell id="YDmUpp5yi8TmxnJeI9YA-46" style="edgeStyle=orthogonalEdgeStyle;shape=connector;curved=0;rounded=1;orthogonalLoop=1;jettySize=auto;html=1;labelBackgroundColor=default;strokeColor=default;align=center;verticalAlign=middle;fontFamily=Helvetica;fontSize=12;fontColor=default;endArrow=classic;" edge="1" parent="1" source="YDmUpp5yi8TmxnJeI9YA-23" target="YDmUpp5yi8TmxnJeI9YA-37">
          <mxGeometry relative="1" as="geometry" />
        </mxCell>
        <mxCell id="YDmUpp5yi8TmxnJeI9YA-52" style="edgeStyle=orthogonalEdgeStyle;shape=connector;curved=0;rounded=1;orthogonalLoop=1;jettySize=auto;html=1;labelBackgroundColor=default;strokeColor=default;align=center;verticalAlign=middle;fontFamily=Helvetica;fontSize=12;fontColor=default;endArrow=classic;" edge="1" parent="1" source="YDmUpp5yi8TmxnJeI9YA-23" target="YDmUpp5yi8TmxnJeI9YA-31">
          <mxGeometry relative="1" as="geometry">
            <Array as="points">
              <mxPoint x="680" y="460" />
              <mxPoint x="680" y="340" />
            </Array>
          </mxGeometry>
        </mxCell>
        <mxCell id="YDmUpp5yi8TmxnJeI9YA-23" value="energy demand" style="rounded=1;whiteSpace=wrap;html=1;perimeterSpacing=12;fontStyle=2" vertex="1" parent="1">
          <mxGeometry x="520" y="440" width="120" height="40" as="geometry" />
        </mxCell>
        <mxCell id="YDmUpp5yi8TmxnJeI9YA-42" style="edgeStyle=orthogonalEdgeStyle;shape=connector;curved=0;rounded=1;orthogonalLoop=1;jettySize=auto;html=1;labelBackgroundColor=default;strokeColor=default;align=center;verticalAlign=middle;fontFamily=Helvetica;fontSize=12;fontColor=default;endArrow=classic;" edge="1" parent="1" source="YDmUpp5yi8TmxnJeI9YA-31" target="YDmUpp5yi8TmxnJeI9YA-37">
          <mxGeometry relative="1" as="geometry">
            <Array as="points">
              <mxPoint x="780" y="410" />
              <mxPoint x="780" y="410" />
            </Array>
          </mxGeometry>
        </mxCell>
        <mxCell id="YDmUpp5yi8TmxnJeI9YA-31" value="grid&amp;nbsp; decarb analysis &amp;amp; arbitrage" style="rounded=1;whiteSpace=wrap;html=1;perimeterSpacing=12;fontStyle=2" vertex="1" parent="1">
          <mxGeometry x="720" y="320" width="120" height="40" as="geometry" />
        </mxCell>
        <mxCell id="YDmUpp5yi8TmxnJeI9YA-44" style="edgeStyle=orthogonalEdgeStyle;shape=connector;curved=0;rounded=1;orthogonalLoop=1;jettySize=auto;html=1;labelBackgroundColor=default;strokeColor=default;align=center;verticalAlign=middle;fontFamily=Helvetica;fontSize=12;fontColor=default;endArrow=classic;" edge="1" parent="1" source="YDmUpp5yi8TmxnJeI9YA-32" target="YDmUpp5yi8TmxnJeI9YA-37">
          <mxGeometry relative="1" as="geometry">
            <Array as="points">
              <mxPoint x="1100" y="420" />
              <mxPoint x="1100" y="420" />
            </Array>
          </mxGeometry>
        </mxCell>
        <mxCell id="YDmUpp5yi8TmxnJeI9YA-32" value="deep geothermal" style="rounded=1;whiteSpace=wrap;html=1;perimeterSpacing=12;fontStyle=2" vertex="1" parent="1">
          <mxGeometry x="1040" y="320" width="120" height="40" as="geometry" />
        </mxCell>
        <mxCell id="YDmUpp5yi8TmxnJeI9YA-43" style="edgeStyle=orthogonalEdgeStyle;shape=connector;curved=0;rounded=1;orthogonalLoop=1;jettySize=auto;html=1;labelBackgroundColor=default;strokeColor=default;align=center;verticalAlign=middle;fontFamily=Helvetica;fontSize=12;fontColor=default;endArrow=classic;" edge="1" parent="1" source="YDmUpp5yi8TmxnJeI9YA-33" target="YDmUpp5yi8TmxnJeI9YA-37">
          <mxGeometry relative="1" as="geometry">
            <Array as="points">
              <mxPoint x="940" y="420" />
              <mxPoint x="940" y="420" />
            </Array>
          </mxGeometry>
        </mxCell>
        <mxCell id="YDmUpp5yi8TmxnJeI9YA-33" value="uReactors" style="rounded=1;whiteSpace=wrap;html=1;perimeterSpacing=12;fontStyle=2" vertex="1" parent="1">
          <mxGeometry x="880" y="320" width="120" height="40" as="geometry" />
        </mxCell>
        <mxCell id="YDmUpp5yi8TmxnJeI9YA-49" style="edgeStyle=orthogonalEdgeStyle;shape=connector;curved=0;rounded=1;orthogonalLoop=1;jettySize=auto;html=1;labelBackgroundColor=default;strokeColor=default;align=center;verticalAlign=middle;fontFamily=Helvetica;fontSize=12;fontColor=default;endArrow=classic;" edge="1" parent="1" source="YDmUpp5yi8TmxnJeI9YA-36" target="YDmUpp5yi8TmxnJeI9YA-48">
          <mxGeometry relative="1" as="geometry" />
        </mxCell>
        <mxCell id="YDmUpp5yi8TmxnJeI9YA-36" value="emissions" style="rounded=1;whiteSpace=wrap;html=1;perimeterSpacing=12;fontStyle=2" vertex="1" parent="1">
          <mxGeometry x="1240" y="440" width="120" height="40" as="geometry" />
        </mxCell>
        <mxCell id="YDmUpp5yi8TmxnJeI9YA-47" style="edgeStyle=orthogonalEdgeStyle;shape=connector;curved=0;rounded=1;orthogonalLoop=1;jettySize=auto;html=1;labelBackgroundColor=default;strokeColor=default;align=center;verticalAlign=middle;fontFamily=Helvetica;fontSize=12;fontColor=default;endArrow=classic;" edge="1" parent="1" source="YDmUpp5yi8TmxnJeI9YA-37" target="YDmUpp5yi8TmxnJeI9YA-36">
          <mxGeometry relative="1" as="geometry" />
        </mxCell>
        <mxCell id="YDmUpp5yi8TmxnJeI9YA-61" style="edgeStyle=orthogonalEdgeStyle;shape=connector;curved=0;rounded=1;jumpStyle=gap;jumpSize=24;orthogonalLoop=1;jettySize=auto;html=1;labelBackgroundColor=default;strokeColor=default;align=center;verticalAlign=middle;fontFamily=Helvetica;fontSize=12;fontColor=default;endArrow=classic;" edge="1" parent="1" source="YDmUpp5yi8TmxnJeI9YA-37" target="YDmUpp5yi8TmxnJeI9YA-60">
          <mxGeometry relative="1" as="geometry">
            <Array as="points">
              <mxPoint x="1200" y="460" />
              <mxPoint x="1200" y="540" />
            </Array>
          </mxGeometry>
        </mxCell>
        <mxCell id="YDmUpp5yi8TmxnJeI9YA-37" value="supply/demand reconciliation" style="rounded=1;whiteSpace=wrap;html=1;perimeterSpacing=12;fontStyle=2" vertex="1" parent="1">
          <mxGeometry x="721" y="440" width="439" height="40" as="geometry" />
        </mxCell>
        <mxCell id="YDmUpp5yi8TmxnJeI9YA-48" value="cost avoidance&amp;nbsp;" style="rounded=1;whiteSpace=wrap;html=1;perimeterSpacing=12;fontStyle=2" vertex="1" parent="1">
          <mxGeometry x="1440" y="440" width="120" height="40" as="geometry" />
        </mxCell>
        <mxCell id="YDmUpp5yi8TmxnJeI9YA-60" value="eenrgy storage" style="rounded=1;whiteSpace=wrap;html=1;perimeterSpacing=12;fontStyle=2" vertex="1" parent="1">
          <mxGeometry x="1240" y="520" width="120" height="40" as="geometry" />
        </mxCell>
      </root>
    </mxGraphModel>
  </diagram>
</mxfile>
